<svg width="32" height="19" viewBox="0 0 32 19" fill="none" xmlns="http://www.w3.org/2000/svg">
<path d="M7.8047 8.83274C8.24896 7.03642 8.68311 5.28082 9.12232 3.5303C9.36464 2.55835 9.60191 1.58641 9.84928 0.619551C9.97044 0.146301 10.1421 0.00381654 10.6267 0.00381654C14.211 -0.00127218 17.7953 -0.00127218 21.3797 0.00381654C21.8643 0.00381654 22.0309 0.146301 22.1571 0.670439C22.8033 3.25042 23.4394 5.8304 24.0805 8.41038C24.1159 8.54268 24.1512 8.67499 24.1916 8.83783C25.1457 8.83783 26.0998 8.83783 27.0489 8.83783C27.7153 8.83783 28.3867 8.84292 29.0531 8.83783C29.4671 8.83274 29.7144 9.02611 29.8154 9.43321C30.5323 12.3338 31.2542 15.2293 31.9711 18.1298C32.0922 18.6234 31.8246 18.9644 31.3249 18.9949C31.2138 19 31.1078 19 30.9967 19C20.996 19 10.9952 19 0.994509 19C0.913735 19 0.832962 19 0.747141 19C0.161535 18.9847 -0.100979 18.6641 0.0353263 18.0891C0.449289 16.3691 0.878397 14.6542 1.30246 12.9393C1.58011 11.8096 1.86282 10.6799 2.15058 9.55025C2.29698 8.96505 2.45852 8.84292 3.06937 8.84292C4.62931 8.83274 6.19934 8.83274 7.8047 8.83274ZM22.8285 8.82256C22.2025 6.30365 21.5866 3.81527 20.9707 1.34215C17.6187 1.34215 14.3271 1.34215 11.0104 1.34215C10.3945 3.83562 9.7786 6.31383 9.15766 8.82256C13.7365 8.82256 18.2547 8.82256 22.8285 8.82256ZM1.4842 17.6464C6.05293 17.6464 10.5813 17.6464 15.145 17.6464C14.519 15.1326 13.9081 12.6493 13.2922 10.1762C9.95024 10.1762 6.64359 10.1762 3.33693 10.1762C2.71599 12.6696 2.10514 15.1428 1.4842 17.6464ZM30.507 17.6566C29.876 15.1173 29.2601 12.6391 28.6493 10.1762C25.3022 10.1762 22.0057 10.1762 18.6939 10.1762C18.0781 12.6696 17.4622 15.1478 16.8412 17.6566C21.4251 17.6566 25.9282 17.6566 30.507 17.6566ZM14.6401 10.1711C15.0844 11.9623 15.5185 13.7026 15.9527 15.443C15.983 15.4379 16.0133 15.4328 16.0436 15.4277C16.4727 13.6823 16.9068 11.9369 17.346 10.1711C16.4172 10.1711 15.564 10.1711 14.6401 10.1711Z" fill="#6F6F6F"/>
</svg>
